<svg width="64.000000" height="64.000000" viewBox="0 0 64 64" fill="none" xmlns="http://www.w3.org/2000/svg" xmlns:xlink="http://www.w3.org/1999/xlink">
	<desc>
			Created with Pixso.
	</desc>
	<defs>
		<clipPath id="clip14_101">
			<rect width="64.000000" height="64.000000" transform="matrix(-1 0 0 1 64 0)" fill="white" fill-opacity="0"/>
		</clipPath>
	</defs>
	<rect width="64.000000" height="64.000000" transform="matrix(-1 0 0 1 64 0)" fill="#FFFFFF" fill-opacity="0"/>
	<g clip-path="url(#clip14_101)">
		<path d="M24.4321 47.4L39.749 47.4C39.3921 47.4 39.104 50.911 39.104 55.236C39.104 59.564 39.3911 63.075 39.749 63.075L24.4321 63.075C24.7881 63.075 25.0769 59.564 25.0769 55.236C25.075 50.911 24.7881 47.4 24.4321 47.4Z" fill="#BFBEBE" fill-opacity="1.000000" fill-rule="nonzero"/>
		<path d="M34.385 47.4L39.748 47.4C39.3911 47.4 39.103 50.911 39.103 55.236C39.103 59.564 39.3901 63.075 39.748 63.075L34.385 63.075C34.0281 63.075 33.74 59.564 33.74 55.236C33.74 50.911 34.0281 47.4 34.385 47.4Z" fill="#AEAEAE" fill-opacity="1.000000" fill-rule="nonzero"/>
		<path d="M0.21582 47.31C0.21582 51.357 3.26587 54.636 7.02197 54.636L57.1519 54.636C60.9119 54.636 63.9609 51.357 63.9609 47.31L63.9609 10.19C63.9609 6.15001 60.9119 2.869 57.1519 2.869L7.02197 2.869C3.26587 2.869 0.21582 6.147 0.21582 10.19L0.21582 47.31Z" fill="#D1D2D2" fill-opacity="1.000000" fill-rule="nonzero"/>
		<path d="M51.0698 47.31L51.0698 10.19C51.0698 6.15001 48.0208 2.869 44.262 2.869L57.1558 2.869C60.9158 2.869 63.9648 6.147 63.9648 10.19L63.9648 47.31C63.9648 51.357 60.9158 54.636 57.1558 54.636L44.262 54.636C48.0208 54.636 51.0698 51.356 51.0698 47.309L51.0698 47.31Z" fill="#C6C5C5" fill-opacity="1.000000" fill-rule="nonzero"/>
		<path d="M0.21582 36.941C0.21582 40.981 3.26587 44.261 7.02197 44.261L57.1519 44.261C60.9119 44.261 63.9609 40.984 63.9609 36.941L63.9609 10.163C63.9609 6.116 60.9119 2.838 57.1519 2.838L7.02197 2.838C3.26587 2.838 0.21582 6.116 0.21582 10.163L0.21582 36.941Z" fill="#243438" fill-opacity="1.000000" fill-rule="nonzero"/>
		<path d="M63.9639 35.05L0.214844 35.05L0.214844 46.417L63.9639 46.417L63.9639 35.05Z" fill="#243438" fill-opacity="1.000000" fill-rule="nonzero"/>
		<path d="M5.25024 6.244L58.9312 6.244C59.3743 6.244 59.7432 6.489 59.7432 6.784L59.7432 41.675C59.7432 41.971 59.3743 42.215 58.9312 42.215L5.25024 42.215C5.00928 42.215 4.82617 42.164 4.69312 42.074L4.6731 42.054C4.6731 42.054 4.65723 42.042 4.65308 42.031C4.58765 41.9969 4.53247 41.946 4.49316 41.8834C4.45386 41.8208 4.43213 41.7488 4.43018 41.675L4.43018 6.791C4.43408 6.496 4.80713 6.25101 5.25024 6.25101L5.25024 6.244Z" fill="#58C5E8" fill-opacity="1.000000" fill-rule="nonzero"/>
		<path d="M31.3022 29.559C22.3262 34.937 13.5571 38.599 4.43408 40.814L4.43408 6.784C4.43408 6.489 4.80713 6.244 5.25024 6.244L54.5103 6.244C49.4502 15.779 40.7422 23.904 31.3 29.559L31.3022 29.559ZM31.2302 35.27C42.0601 29.371 52.9031 21.2 59.7432 11.11L59.7432 41.674C59.7432 41.97 59.3743 42.214 58.9312 42.214L15.1182 42.214C20.4702 40.489 25.8071 38.228 31.2283 35.274L31.2302 35.27Z" fill="#28A6DE" fill-opacity="1.000000" fill-rule="nonzero"/>
		<path d="M20.2788 62.727C20.2788 63.429 20.6169 64 21.032 64L43.1418 64C43.561 64 43.8989 63.429 43.8989 62.727C43.8989 62.024 43.561 61.454 43.1418 61.454L21.032 61.454C20.6169 61.451 20.2788 62.023 20.2788 62.727Z" fill="#D1D2D2" fill-opacity="1.000000" fill-rule="nonzero"/>
		<path d="M36.063 62.727C36.063 62.024 35.7251 61.454 35.3101 61.454L43.4351 61.454C43.8511 61.454 44.188 62.024 44.188 62.727C44.188 63.429 43.8501 64 43.4351 64L35.3101 64C35.7251 64 36.063 63.429 36.063 62.727Z" fill="#C6C5C5" fill-opacity="1.000000" fill-rule="nonzero"/>
		<path d="M29.6702 48.615C29.7681 48.521 29.9111 48.494 30.106 48.55L31.229 48.837C31.5791 48.932 31.7561 49.163 31.7561 49.535L31.76 50.736C31.76 50.91 31.7212 51.039 31.6431 51.113C31.6101 51.1447 31.571 51.1693 31.5281 51.1853C31.4854 51.2012 31.4397 51.2083 31.394 51.206C31.334 51.206 31.2781 51.193 31.2061 51.179L30.084 50.893C29.7341 50.799 29.5562 50.567 29.552 50.19L29.552 48.993C29.5552 48.816 29.594 48.689 29.6702 48.615ZM30.2661 49.982C30.2661 50.115 30.3281 50.197 30.4551 50.232L30.853 50.336C30.8748 50.3403 30.897 50.343 30.9192 50.344C30.9519 50.3447 30.9836 50.3337 31.009 50.313C31.0352 50.288 31.052 50.241 31.0471 50.173L31.0471 49.746C31.0471 49.613 30.9851 49.531 30.8601 49.497L30.457 49.393C30.3882 49.377 30.3362 49.385 30.3062 49.416C30.2761 49.443 30.2632 49.488 30.2632 49.552L30.2632 49.983L30.2661 49.983L30.2661 49.982ZM32.4202 49.53C32.4202 49.158 32.595 48.926 32.948 48.832L34.0701 48.545C34.2642 48.489 34.408 48.519 34.501 48.61C34.583 48.684 34.6221 48.811 34.6221 48.987L34.6182 50.182C34.614 50.559 34.439 50.792 34.0901 50.885L32.9641 51.172C32.8979 51.192 32.8362 51.199 32.782 51.199C32.7363 51.2015 32.6904 51.1944 32.6477 51.1782C32.6047 51.162 32.5657 51.1371 32.533 51.105C32.4551 51.032 32.416 50.904 32.416 50.728L32.4202 49.53ZM33.166 50.308C33.186 50.329 33.2161 50.339 33.2551 50.339C33.2551 50.339 33.2981 50.335 33.321 50.331L33.7212 50.227C33.845 50.192 33.9111 50.11 33.9111 49.977L33.9111 49.546C33.9111 49.484 33.895 49.438 33.8691 49.41C33.8381 49.379 33.7871 49.371 33.7141 49.387L33.314 49.491C33.1902 49.525 33.124 49.607 33.124 49.74L33.124 50.171C33.124 50.233 33.124 50.28 33.166 50.308ZM31.6311 52.609C31.6111 52.609 31.592 52.605 31.5652 52.596L31.165 52.493C31.041 52.464 30.9751 52.378 30.9751 52.241L30.9751 51.815C30.9734 51.7661 30.9871 51.7178 31.0142 51.677C31.0491 51.643 31.104 51.639 31.1692 51.656L31.573 51.759C31.697 51.79 31.76 51.875 31.76 52.011L31.7642 52.44C31.7642 52.502 31.748 52.544 31.7212 52.571C31.7012 52.597 31.6702 52.609 31.6311 52.609ZM32.5442 52.609C32.5679 52.6087 32.5916 52.6043 32.614 52.596L33.0142 52.493C33.1382 52.464 33.2012 52.378 33.2012 52.241L33.2051 51.815C33.2051 51.752 33.189 51.71 33.1621 51.677C33.1311 51.643 33.0771 51.639 33.011 51.656L32.603 51.759C32.4822 51.79 32.416 51.875 32.416 52.011L32.416 52.44C32.416 52.502 32.4321 52.544 32.4551 52.571C32.4663 52.5835 32.48 52.5934 32.4954 52.5999C32.5107 52.6065 32.5273 52.6096 32.5442 52.609Z" fill="#243438" fill-opacity="1.000000" fill-rule="nonzero"/>
	</g>
</svg>
